<?xml version="1.0" standalone="no"?><!DOCTYPE svg PUBLIC "-//W3C//DTD SVG 1.1//EN" "http://www.w3.org/Graphics/SVG/1.1/DTD/svg11.dtd"><svg width="2048px" height="2048px" version="1.1" xmlns="http://www.w3.org/2000/svg" xmlns:xlink="http://www.w3.org/1999/xlink" xml:space="preserve" style="fill-rule:evenodd;clip-rule:evenodd;stroke-linecap:round;stroke-linejoin:round;stroke-miterlimit:1.41421;"><g><clipPath id="tag1"><rect x="0" y="0" width="2048" height="2048"/></clipPath><g clip-path="url(#tag1)"><g></g><g transform="matrix(5.03969,-4.67787e-16,-4.67787e-16,6.94957,-882.727,-2056.63)"><rect x="175.155" y="295.936" width="406.374" height="294.694" style="fill:#041617;"/></g><g transform="matrix(1.75682,0,0,1.75682,-809.964,-714.403)"><g transform="matrix(1,0,0,1,20.8798,75.3471)"><path d="M895.36,899.405c-47.361,49.1998 -130.515,88.8149 -164.39,122.266c-20.7624,20.5022 -55.5444,-12.1642 -58.3774,16.271c-2.83307,28.4352 20.1524,135.196 41.379,154.34c21.2267,19.1445 69.8861,27.7627 105.498,22.6944c38.1035,-5.42293 78.8429,-47.3212 123.123,-55.232c58.3211,-10.4192 156.088,19.5635 226.803,-7.2832c74.9333,-28.448 188.132,-98.6325 222.797,-163.405c34.6645,-64.7723 -2.11215,-220.069 -28.7426,-274.767c-25.9454,-53.2917 -76.7678,-40.8592 -131.04,-53.4245c-54.272,-12.5653 -130.935,-7.61996 -180.659,27.5712c-56.1749,39.7568 -102.927,155.43 -156.39,210.97Z" style="fill:#cfcfcf;"/></g><path d="M895.36,899.405c-47.361,49.1998 -130.515,88.8149 -164.39,122.266c-20.7624,20.5022 -36.0277,50.0032 -38.8608,78.4384c-2.83307,28.4352 0.635733,73.0283 21.8624,92.1728c21.2267,19.1445 69.8861,27.7627 105.498,22.6944c38.1035,-5.42293 78.8429,-47.3212 123.123,-55.232c58.3211,-10.4192 156.088,19.5635 226.803,-7.2832c74.9333,-28.448 188.132,-98.6325 222.797,-163.405c34.6645,-64.7723 11.8208,-170.53 -14.8096,-225.229c-25.9454,-53.2917 -90.7008,-90.3979 -144.973,-102.963c-54.272,-12.5653 -130.935,-7.61996 -180.659,27.5712c-56.1749,39.7568 -102.927,155.43 -156.39,210.97Z" style="fill:#fff;"/><path d="M762.597,1124.36c42.4481,39.343 133.137,-46.619 177.976,-53.5298c30.26,-4.66383 61.4975,4.08338 91.0561,12.0652c42.6711,11.5226 111.513,6.92087 158.911,-12.0652c47.3978,-18.9861 98.961,-62.0544 125.476,-101.851c26.0587,-39.1123 42.4538,-95.5206 33.6129,-136.929c-8.84089,-41.4087 -52.2608,-91.0156 -86.6583,-111.523c-34.3975,-20.507 -84.1306,-19.4996 -119.726,-11.5192c-35.5959,7.98036 -71.2729,30.0585 -93.8488,59.4014c-22.7608,29.5832 -24.0221,86.4913 -42.7158,118.098c-16.9192,28.6062 -35.3045,44.8476 -69.4469,71.5423c-41.9813,32.8237 -75.5752,34.2732 -120.657,60.9817c-33.9421,20.1087 -71.9913,88.6336 -53.9786,105.329Z" style="fill:#ff1600;"/><g transform="matrix(1.03478,-0.213196,0.194966,0.946299,-205.137,293.208)"><path d="M1168.18,799.108c34.0246,0 61.607,27.9846 61.607,62.5053c0,34.5207 -27.5824,62.5053 -61.607,62.5053c-34.0246,0 -61.607,-27.9846 -61.607,-62.5053c0,-34.5207 27.5824,-62.5053 61.607,-62.5053Z" style="fill:#f7fff7;"/></g><g transform="matrix(0.428051,-0.196097,0.162295,0.354267,534.506,784.888)"><path d="M1168.18,799.108c34.0246,0 61.607,27.9846 61.607,62.5053c0,34.5207 -27.5824,62.5053 -61.607,62.5053c-34.0246,0 -61.607,-27.9846 -61.607,-62.5053c0,-34.5207 27.5824,-62.5053 61.607,-62.5053Z" style="fill:#c1c1c1;"/></g></g><g transform="matrix(-0.843232,0.53755,-0.53755,-0.843232,1226.01,667.188)"><path d="M774.835,1033.06c0,0 -139.556,-79.1132 -138.406,-146.214c1.23307,-71.9808 145.805,-285.67 145.805,-285.67c0,0 138.82,218.554 137.587,290.534c-1.15606,67.4856 -144.986,141.35 -144.986,141.35Z" style="fill:#11590f;"/></g><g transform="matrix(0.852358,0.522959,-0.522959,0.852358,71.3182,667.723)"><path d="M774.835,1033.06c0,0 -139.556,-79.1132 -138.406,-146.214c1.23307,-71.9808 145.805,-285.67 145.805,-285.67c0,0 138.82,218.554 137.587,290.534c-1.15606,67.4856 -144.986,141.35 -144.986,141.35Z" style="fill:#268f23;"/></g><g transform="matrix(0.852358,0.522959,-0.522959,0.852358,-24.9762,815.128)"><path d="M774.835,1033.06c0,0 -139.556,-79.1132 -138.406,-146.214c1.23307,-71.9808 145.805,-285.67 145.805,-285.67c0,0 138.82,218.554 137.587,290.534c-1.15606,67.4856 -144.986,141.35 -144.986,141.35Z" style="fill:#268f23;"/></g><g transform="matrix(0.996049,0.0888088,-0.0888088,0.996049,-609.017,906.31)"><path d="M774.835,1033.06c0,0 -139.556,-79.1132 -138.406,-146.214c1.23307,-71.9808 145.805,-285.67 145.805,-285.67c0,0 138.82,218.554 137.587,290.534c-1.15606,67.4856 -144.986,141.35 -144.986,141.35Z" style="fill:#117e0e;"/></g><g transform="matrix(0.996049,0.0888088,-0.0888088,0.996049,-700.691,1117.07)"><path d="M774.835,1033.06c0,0 -139.556,-79.1132 -138.406,-146.214c1.23307,-71.9808 145.805,-285.67 145.805,-285.67c0,0 138.82,218.554 137.587,290.534c-1.15606,67.4856 -144.986,141.35 -144.986,141.35Z" style="fill:#117e0e;"/></g><g transform="matrix(0.237872,0.971297,-0.971297,0.237872,749.372,-413.283)"><path d="M774.835,1033.06c0,0 -139.556,-79.1132 -138.406,-146.214c1.23307,-71.9808 145.805,-285.67 145.805,-285.67c0,0 138.82,218.554 137.587,290.534c-1.15606,67.4856 -144.986,141.35 -144.986,141.35Z" style="fill:#117e0e;"/></g><g transform="matrix(0.0292005,0.999574,-0.999574,0.0292005,985.001,-118.447)"><path d="M774.835,1033.06c0,0 -139.556,-79.1132 -138.406,-146.214c1.23307,-71.9808 145.805,-285.67 145.805,-285.67c0,0 138.82,218.554 137.587,290.534c-1.15606,67.4856 -144.986,141.35 -144.986,141.35Z" style="fill:#268f23;"/></g><g transform="matrix(0.0292005,0.999574,-0.999574,0.0292005,897.462,-118.447)"><path d="M774.835,1033.06c0,0 -139.556,-79.1132 -138.406,-146.214c1.23307,-71.9808 145.805,-285.67 145.805,-285.67c0,0 138.82,218.554 137.587,290.534c-1.15606,67.4856 -144.986,141.35 -144.986,141.35Z" style="fill:#268f23;"/></g><g transform="matrix(-0.0340963,0.999419,-0.999419,-0.0340963,987.241,139.423)"><path d="M774.835,1033.06c0,0 -139.556,-79.1132 -138.406,-146.214c1.23307,-71.9808 145.805,-285.67 145.805,-285.67c0,0 138.82,218.554 137.587,290.534c-1.15606,67.4856 -144.986,141.35 -144.986,141.35Z" style="fill:#11590f;"/></g><g transform="matrix(-0.917722,0.397223,-0.397223,-0.917722,1415.49,498.316)"><path d="M774.835,1033.06c0,0 -139.556,-79.1132 -138.406,-146.214c1.23307,-71.9808 145.805,-285.67 145.805,-285.67c0,0 138.82,218.554 137.587,290.534c-1.15606,67.4856 -144.986,141.35 -144.986,141.35Z" style="fill:#11590f;"/></g><g transform="matrix(-0.460519,0.88765,-0.88765,-0.460519,1333.36,-84.7009)"><path d="M774.835,1033.06c0,0 -139.556,-79.1132 -138.406,-146.214c1.23307,-71.9808 145.805,-285.67 145.805,-285.67c0,0 138.82,218.554 137.587,290.534c-1.15606,67.4856 -144.986,141.35 -144.986,141.35Z" style="fill:#268f23;"/></g><g transform="matrix(-0.98796,0.154707,-0.154707,-0.98796,968.452,839.714)"><path d="M774.835,1033.06c0,0 -139.556,-79.1132 -138.406,-146.214c1.23307,-71.9808 145.805,-285.67 145.805,-285.67c0,0 138.82,218.554 137.587,290.534c-1.15606,67.4856 -144.986,141.35 -144.986,141.35Z" style="fill:#117e0e;"/></g><g transform="matrix(-0.236029,0.971746,-0.971746,-0.236029,1211.72,-456.838)"><path d="M774.835,1033.06c0,0 -139.556,-79.1132 -138.406,-146.214c1.23307,-71.9808 145.805,-285.67 145.805,-285.67c0,0 138.82,218.554 137.587,290.534c-1.15606,67.4856 -144.986,141.35 -144.986,141.35Z" style="fill:#117e0e;"/></g><g transform="matrix(-0.98796,0.154707,-0.154707,-0.98796,1500.24,801.365)"><path d="M774.835,1033.06c0,0 -139.556,-79.1132 -138.406,-146.214c1.23307,-71.9808 145.805,-285.67 145.805,-285.67c0,0 138.82,218.554 137.587,290.534c-1.15606,67.4856 -144.986,141.35 -144.986,141.35Z" style="fill:#117e0e;"/></g><g transform="matrix(-0.98796,0.154707,-0.154707,-0.98796,2202.05,845.205)"><path d="M774.835,1033.06c0,0 -139.556,-79.1132 -138.406,-146.214c1.23307,-71.9808 145.805,-285.67 145.805,-285.67c0,0 138.82,218.554 137.587,290.534c-1.15606,67.4856 -144.986,141.35 -144.986,141.35Z" style="fill:#117e0e;"/></g><g transform="matrix(-0.98796,0.154707,-0.154707,-0.98796,2852.36,808.187)"><path d="M774.835,1033.06c0,0 -139.556,-79.1132 -138.406,-146.214c1.23307,-71.9808 145.805,-285.67 145.805,-285.67c0,0 138.82,218.554 137.587,290.534c-1.15606,67.4856 -144.986,141.35 -144.986,141.35Z" style="fill:#117e0e;"/></g><g transform="matrix(0.134585,0.990902,-0.990902,0.134585,874.652,324.032)"><path d="M774.835,1033.06c0,0 -139.556,-79.1132 -138.406,-146.214c1.23307,-71.9808 145.805,-285.67 145.805,-285.67c0,0 138.82,218.554 137.587,290.534c-1.15606,67.4856 -144.986,141.35 -144.986,141.35Z" style="fill:#11590f;"/></g><g transform="matrix(0.134585,0.990902,-0.990902,0.134585,766.224,707.341)"><path d="M774.835,1033.06c0,0 -139.556,-79.1132 -138.406,-146.214c1.23307,-71.9808 145.805,-285.67 145.805,-285.67c0,0 138.82,218.554 137.587,290.534c-1.15606,67.4856 -144.986,141.35 -144.986,141.35Z" style="fill:#11590f;"/></g><g transform="matrix(0.59198,0.805953,-0.805953,0.59198,298.508,-75.6573)"><path d="M774.835,1033.06c0,0 -139.556,-79.1132 -138.406,-146.214c1.23307,-71.9808 145.805,-285.67 145.805,-285.67c0,0 138.82,218.554 137.587,290.534c-1.15606,67.4856 -144.986,141.35 -144.986,141.35Z" style="fill:#117e0e;"/></g><g transform="matrix(0.644725,0.764414,-0.764414,0.644725,550.423,794.333)"><path d="M774.835,1033.06c0,0 -139.556,-79.1132 -138.406,-146.214c1.23307,-71.9808 145.805,-285.67 145.805,-285.67c0,0 138.82,218.554 137.587,290.534c-1.15606,67.4856 -144.986,141.35 -144.986,141.35Z" style="fill:#11590f;"/></g><g transform="matrix(0.644725,0.764414,-0.764414,0.644725,584.778,936.989)"><path d="M774.835,1033.06c0,0 -139.556,-79.1132 -138.406,-146.214c1.23307,-71.9808 145.805,-285.67 145.805,-285.67c0,0 138.82,218.554 137.587,290.534c-1.15606,67.4856 -144.986,141.35 -144.986,141.35Z" style="fill:#11590f;"/></g><g transform="matrix(-0.852358,0.522959,0.522959,0.852358,2044.61,729.176)"><path d="M774.835,1033.06c0,0 -139.556,-79.1132 -138.406,-146.214c1.23307,-71.9808 145.805,-285.67 145.805,-285.67c0,0 138.82,218.554 137.587,290.534c-1.15606,67.4856 -144.986,141.35 -144.986,141.35Z" style="fill:#117e0e;"/></g><g transform="matrix(-0.852358,0.522959,0.522959,0.852358,2098.15,815.87)"><path d="M774.835,1033.06c0,0 -139.556,-79.1132 -138.406,-146.214c1.23307,-71.9808 145.805,-285.67 145.805,-285.67c0,0 138.82,218.554 137.587,290.534c-1.15606,67.4856 -144.986,141.35 -144.986,141.35Z" style="fill:#117e0e;"/></g><g transform="matrix(-0.996049,0.0888088,0.0888088,0.996049,2724.94,967.763)"><path d="M774.835,1033.06c0,0 -139.556,-79.1132 -138.406,-146.214c1.23307,-71.9808 145.805,-285.67 145.805,-285.67c0,0 138.82,218.554 137.587,290.534c-1.15606,67.4856 -144.986,141.35 -144.986,141.35Z" style="fill:#268f23;"/></g><g transform="matrix(0.0340963,0.999419,0.999419,-0.0340963,1128.67,-92.9609)"><path d="M774.835,1033.06c0,0 -139.556,-79.1132 -138.406,-146.214c1.23307,-71.9808 145.805,-285.67 145.805,-285.67c0,0 138.82,218.554 137.587,290.534c-1.15606,67.4856 -144.986,141.35 -144.986,141.35Z" style="fill:#268f23;"/></g><g transform="matrix(-0.576504,0.817094,0.817094,0.576504,1715.73,-645.876)"><path d="M774.835,1033.06c0,0 -139.556,-79.1132 -138.406,-146.214c1.23307,-71.9808 145.805,-285.67 145.805,-285.67c0,0 138.82,218.554 137.587,290.534c-1.15606,67.4856 -144.986,141.35 -144.986,141.35Z" style="fill:#117e0e;"/></g><g transform="matrix(-0.576504,0.817094,0.817094,0.576504,1830.72,-761.832)"><path d="M774.835,1033.06c0,0 -139.556,-79.1132 -138.406,-146.214c1.23307,-71.9808 145.805,-285.67 145.805,-285.67c0,0 138.82,218.554 137.587,290.534c-1.15606,67.4856 -144.986,141.35 -144.986,141.35Z" style="fill:#117e0e;"/></g><g transform="matrix(0.144547,0.989498,0.989498,-0.144547,972.178,807.954)"><path d="M774.835,1033.06c0,0 -139.556,-79.1132 -138.406,-146.214c1.23307,-71.9808 145.805,-285.67 145.805,-285.67c0,0 138.82,218.554 137.587,290.534c-1.15606,67.4856 -144.986,141.35 -144.986,141.35Z" style="fill:#117e0e;"/></g><g transform="matrix(0.144547,0.989498,0.989498,-0.144547,1103.79,953.157)"><path d="M774.835,1033.06c0,0 -139.556,-79.1132 -138.406,-146.214c1.23307,-71.9808 145.805,-285.67 145.805,-285.67c0,0 138.82,218.554 137.587,290.534c-1.15606,67.4856 -144.986,141.35 -144.986,141.35Z" style="fill:#11590f;"/></g><g transform="matrix(-0.863775,0.503877,0.503877,0.863775,2241.12,18.6627)"><path d="M774.835,1033.06c0,0 -139.556,-79.1132 -138.406,-146.214c1.23307,-71.9808 145.805,-285.67 145.805,-285.67c0,0 138.82,218.554 137.587,290.534c-1.15606,67.4856 -144.986,141.35 -144.986,141.35Z" style="fill:#268f23;"/></g><g transform="matrix(0.0340963,0.999419,0.999419,-0.0340963,1135.96,28.2039)"><path d="M774.835,1033.06c0,0 -139.556,-79.1132 -138.406,-146.214c1.23307,-71.9808 145.805,-285.67 145.805,-285.67c0,0 138.82,218.554 137.587,290.534c-1.15606,67.4856 -144.986,141.35 -144.986,141.35Z" style="fill:#11590f;"/></g><g transform="matrix(-0.999419,0.0340963,0.0340963,0.999419,2199.04,1087.06)"><path d="M774.835,1033.06c0,0 -139.556,-79.1132 -138.406,-146.214c1.23307,-71.9808 145.805,-285.67 145.805,-285.67c0,0 138.82,218.554 137.587,290.534c-1.15606,67.4856 -144.986,141.35 -144.986,141.35Z" style="fill:#117e0e;"/></g><g transform="matrix(-0.999419,0.0340963,0.0340963,0.999419,2231.69,1177.26)"><path d="M774.835,1033.06c0,0 -139.556,-79.1132 -138.406,-146.214c1.23307,-71.9808 145.805,-285.67 145.805,-285.67c0,0 138.82,218.554 137.587,290.534c-1.15606,67.4856 -144.986,141.35 -144.986,141.35Z" style="fill:#117e0e;"/></g><g transform="matrix(-0.973137,-0.230225,-0.230225,0.973137,1613.13,1257.39)"><path d="M774.835,1033.06c0,0 -139.556,-79.1132 -138.406,-146.214c1.23307,-71.9808 145.805,-285.67 145.805,-285.67c0,0 138.82,218.554 137.587,290.534c-1.15606,67.4856 -144.986,141.35 -144.986,141.35Z" style="fill:#117e0e;"/></g><g transform="matrix(-0.973137,-0.230225,-0.230225,0.973137,1675.89,1421.79)"><path d="M774.835,1033.06c0,0 -139.556,-79.1132 -138.406,-146.214c1.23307,-71.9808 145.805,-285.67 145.805,-285.67c0,0 138.82,218.554 137.587,290.534c-1.15606,67.4856 -144.986,141.35 -144.986,141.35Z" style="fill:#117e0e;"/></g><g transform="matrix(-0.68538,0.728185,0.728185,0.68538,793.797,812.679)"><path d="M774.835,1033.06c0,0 -139.556,-79.1132 -138.406,-146.214c1.23307,-71.9808 145.805,-285.67 145.805,-285.67c0,0 138.82,218.554 137.587,290.534c-1.15606,67.4856 -144.986,141.35 -144.986,141.35Z" style="fill:#268f23;"/></g><g transform="matrix(-0.999419,0.0340963,0.0340963,0.999419,1749.56,942.931)"><path d="M774.835,1033.06c0,0 -139.556,-79.1132 -138.406,-146.214c1.23307,-71.9808 145.805,-285.67 145.805,-285.67c0,0 138.82,218.554 137.587,290.534c-1.15606,67.4856 -144.986,141.35 -144.986,141.35Z" style="fill:#11590f;"/></g><g transform="matrix(-0.996595,-0.0824523,-0.0824523,0.996595,1975.05,1223.67)"><path d="M774.835,1033.06c0,0 -139.556,-79.1132 -138.406,-146.214c1.23307,-71.9808 145.805,-285.67 145.805,-285.67c0,0 138.82,218.554 137.587,290.534c-1.15606,67.4856 -144.986,141.35 -144.986,141.35Z" style="fill:#117e0e;"/></g><g transform="matrix(-0.999419,0.0340963,0.0340963,0.999419,2011.81,1033.53)"><path d="M774.835,1033.06c0,0 -139.556,-79.1132 -138.406,-146.214c1.23307,-71.9808 145.805,-285.67 145.805,-285.67c0,0 138.82,218.554 137.587,290.534c-1.15606,67.4856 -144.986,141.35 -144.986,141.35Z" style="fill:#268f23;"/></g><g transform="matrix(-0.1304,-0.991461,-0.991461,0.1304,2278.15,2593.58)"><path d="M774.835,1033.06c0,0 -139.556,-79.1132 -138.406,-146.214c1.23307,-71.9808 145.805,-285.67 145.805,-285.67c0,0 138.82,218.554 137.587,290.534c-1.15606,67.4856 -144.986,141.35 -144.986,141.35Z" style="fill:#11590f;"/></g><g transform="matrix(-0.999419,-0.0340963,0.0340963,-0.999419,2298.96,857.578)"><path d="M774.835,1033.06c0,0 -139.556,-79.1132 -138.406,-146.214c1.23307,-71.9808 145.805,-285.67 145.805,-285.67c0,0 138.82,218.554 137.587,290.534c-1.15606,67.4856 -144.986,141.35 -144.986,141.35Z" style="fill:#268f23;"/></g><g transform="matrix(-0.973137,0.230225,-0.230225,-0.973137,1713.05,687.247)"><path d="M774.835,1033.06c0,0 -139.556,-79.1132 -138.406,-146.214c1.23307,-71.9808 145.805,-285.67 145.805,-285.67c0,0 138.82,218.554 137.587,290.534c-1.15606,67.4856 -144.986,141.35 -144.986,141.35Z" style="fill:#11590f;"/></g><g transform="matrix(-0.664606,-0.747194,0.747194,-0.664606,862.017,1129.77)"><path d="M774.835,1033.06c0,0 -139.556,-79.1132 -138.406,-146.214c1.23307,-71.9808 145.805,-285.67 145.805,-285.67c0,0 138.82,218.554 137.587,290.534c-1.15606,67.4856 -144.986,141.35 -144.986,141.35Z" style="fill:#268f23;"/></g><g transform="matrix(-0.999419,-0.0340963,0.0340963,-0.999419,1849.47,1001.71)"><path d="M774.835,1033.06c0,0 -139.556,-79.1132 -138.406,-146.214c1.23307,-71.9808 145.805,-285.67 145.805,-285.67c0,0 138.82,218.554 137.587,290.534c-1.15606,67.4856 -144.986,141.35 -144.986,141.35Z" style="fill:#11590f;"/></g><g transform="matrix(-0.996595,0.0824523,-0.0824523,-0.996595,2074.96,720.972)"><path d="M774.835,1033.06c0,0 -139.556,-79.1132 -138.406,-146.214c1.23307,-71.9808 145.805,-285.67 145.805,-285.67c0,0 138.82,218.554 137.587,290.534c-1.15606,67.4856 -144.986,141.35 -144.986,141.35Z" style="fill:#268f23;"/></g><g transform="matrix(-0.999419,-0.0340963,0.0340963,-0.999419,2111.73,911.107)"><path d="M774.835,1033.06c0,0 -139.556,-79.1132 -138.406,-146.214c1.23307,-71.9808 145.805,-285.67 145.805,-285.67c0,0 138.82,218.554 137.587,290.534c-1.15606,67.4856 -144.986,141.35 -144.986,141.35Z" style="fill:#268f23;"/></g><g transform="matrix(-0.999419,-0.0340963,0.0340963,-0.999419,2216.27,859.165)"><path d="M774.835,1033.06c0,0 -139.556,-79.1132 -138.406,-146.214c1.23307,-71.9808 145.805,-285.67 145.805,-285.67c0,0 138.82,218.554 137.587,290.534c-1.15606,67.4856 -144.986,141.35 -144.986,141.35Z" style="fill:#268f23;"/></g><g transform="matrix(-0.201313,0.979527,0.979527,0.201313,1328.12,23.9965)"><path d="M774.835,1033.06c0,0 -139.556,-79.1132 -138.406,-146.214c1.23307,-71.9808 145.805,-285.67 145.805,-285.67c0,0 138.82,218.554 137.587,290.534c-1.15606,67.4856 -144.986,141.35 -144.986,141.35Z" style="fill:#117e0e;"/></g><g transform="matrix(0.917722,0.397223,0.397223,-0.917722,700.437,559.769)"><path d="M774.835,1033.06c0,0 -139.556,-79.1132 -138.406,-146.214c1.23307,-71.9808 145.805,-285.67 145.805,-285.67c0,0 138.82,218.554 137.587,290.534c-1.15606,67.4856 -144.986,141.35 -144.986,141.35Z" style="fill:#268f23;"/></g><g transform="matrix(0.460519,0.88765,0.88765,-0.460519,782.564,-23.2481)"><path d="M774.835,1033.06c0,0 -139.556,-79.1132 -138.406,-146.214c1.23307,-71.9808 145.805,-285.67 145.805,-285.67c0,0 138.82,218.554 137.587,290.534c-1.15606,67.4856 -144.986,141.35 -144.986,141.35Z" style="fill:#11590f;"/></g><g transform="matrix(0.98796,0.154707,0.154707,-0.98796,615.685,862.818)"><path d="M774.835,1033.06c0,0 -139.556,-79.1132 -138.406,-146.214c1.23307,-71.9808 145.805,-285.67 145.805,-285.67c0,0 138.82,218.554 137.587,290.534c-1.15606,67.4856 -144.986,141.35 -144.986,141.35Z" style="fill:#11590f;"/></g><g transform="matrix(-0.134585,0.990902,0.990902,0.134585,1196.59,390.336)"><path d="M774.835,1033.06c0,0 -139.556,-79.1132 -138.406,-146.214c1.23307,-71.9808 145.805,-285.67 145.805,-285.67c0,0 138.82,218.554 137.587,290.534c-1.15606,67.4856 -144.986,141.35 -144.986,141.35Z" style="fill:#11590f;"/></g><g transform="matrix(-0.644725,0.764414,0.764414,0.644725,1565.5,855.786)"><path d="M774.835,1033.06c0,0 -139.556,-79.1132 -138.406,-146.214c1.23307,-71.9808 145.805,-285.67 145.805,-285.67c0,0 138.82,218.554 137.587,290.534c-1.15606,67.4856 -144.986,141.35 -144.986,141.35Z" style="fill:#11590f;"/></g><g transform="matrix(-0.390651,0.920539,-0.920539,-0.390651,1192.72,988.188)"><path d="M774.835,1033.06c0,0 -139.556,-79.1132 -138.406,-146.214c1.23307,-71.9808 145.805,-285.67 145.805,-285.67c0,0 138.82,218.554 137.587,290.534c-1.15606,67.4856 -144.986,141.35 -144.986,141.35Z" style="fill:#268f23;"/></g></g></g></svg>